<?xml version="1.0" standalone="no"?>
<!DOCTYPE svg PUBLIC "-//W3C//DTD SVG 20010904//EN"
 "http://www.w3.org/TR/2001/REC-SVG-20010904/DTD/svg10.dtd">
<svg version="1.0" xmlns="http://www.w3.org/2000/svg"
 width="208.000000pt" height="208.000000pt" viewBox="0 0 208.000000 208.000000"
 preserveAspectRatio="xMidYMid meet">
<metadata>
Created by potrace 1.11, written by Peter Selinger 2001-2013
</metadata>
<g transform="translate(0.000000,208.000000) scale(0.100000,-0.100000)"
fill="#000000" stroke="none">
<path d="M0 1035 l0 -415 1040 0 1040 0 0 415 0 415 -1040 0 -1040 0 0 -415z
m2055 0 l0 -390 -1015 0 -1015 0 -1 385 c0 212 1 388 2 391 2 3 459 5 1016 5
l1013 -1 0 -390z"/>
<path d="M186 1230 c0 -22 4 -43 8 -47 4 -4 55 -8 114 -9 59 -1 109 -2 110 -3
2 0 -11 -27 -29 -58 -18 -32 -46 -83 -62 -113 -16 -30 -40 -73 -52 -95 -13
-22 -35 -61 -49 -87 l-27 -48 63 0 63 0 25 48 c27 51 99 185 161 299 27 50 39
84 39 112 l0 41 -183 0 -182 0 1 -40z"/>
<path d="M628 1222 l4 -48 114 1 c63 0 114 -1 114 -4 0 -2 -28 -54 -62 -115
-34 -61 -70 -127 -81 -146 -10 -19 -32 -59 -49 -87 l-29 -53 63 0 63 0 113
210 c89 167 112 219 112 250 l0 40 -182 0 -183 0 3 -48z"/>
<path d="M1103 1188 c-12 -6 -27 -24 -32 -40 -25 -70 61 -127 119 -80 20 16
21 20 7 25 -9 3 -19 2 -22 -3 -16 -26 -84 3 -84 35 0 34 62 58 86 34 8 -8 13
-7 18 2 10 15 -21 39 -49 38 -12 0 -31 -5 -43 -11z"/>
<path d="M1329 1193 c-16 -4 -46 -51 -44 -68 5 -43 39 -75 80 -75 28 0 63 23
74 48 28 60 -36 115 -110 95z m73 -40 c22 -20 23 -37 2 -57 -21 -22 -57 -20
-79 4 -17 18 -17 21 -1 45 19 29 51 32 78 8z"/>
<path d="M1549 1198 c-1 -2 -2 -36 -3 -75 -2 -53 1 -73 10 -73 9 0 14 18 16
53 l3 52 20 -32 c10 -18 22 -33 25 -33 3 0 15 15 25 33 l20 32 3 -52 c2 -34 8
-53 16 -53 9 0 12 21 12 75 -1 87 -18 100 -53 38 l-21 -36 -23 36 c-20 30 -44
47 -50 35z"/>
<path d="M1768 1182 c-12 -15 -11 -16 5 -3 15 12 17 11 17 -13 0 -30 21 -31
33 -1 7 17 10 17 18 5 7 -10 9 -11 7 -2 -2 8 -8 14 -13 14 -6 0 -20 4 -32 9
-15 6 -25 3 -35 -9z"/>
<path d="M1760 1151 c0 -6 4 -13 10 -16 6 -3 7 1 4 9 -7 18 -14 21 -14 7z"/>
<path d="M1820 1130 c-9 -6 -10 -10 -3 -10 6 0 15 5 18 10 8 12 4 12 -15 0z"/>
<path d="M1077 983 c-2 -5 -5 -38 -6 -75 -2 -56 1 -68 13 -68 9 0 15 3 15 8
-5 30 3 42 29 42 54 1 81 49 46 84 -16 16 -89 22 -97 9z m78 -43 c0 -9 -11
-16 -27 -18 -23 -3 -28 1 -28 18 0 17 5 21 28 18 16 -2 27 -9 27 -18z"/>
<path d="M1288 915 c-24 -49 -32 -75 -23 -75 7 0 18 7 25 15 7 8 28 15 47 15
21 0 36 -6 39 -15 6 -14 34 -22 34 -10 0 18 -65 145 -74 145 -7 0 -28 -34 -48
-75z m65 5 c4 -16 0 -20 -19 -20 -27 0 -28 3 -13 31 12 22 24 18 32 -11z"/>
<path d="M1508 978 c-4 -11 -3 -104 1 -130 1 -5 5 -8 10 -8 6 0 11 24 13 52
l3 53 40 -52 c56 -72 65 -69 64 22 -1 57 -4 75 -15 75 -10 0 -14 -14 -14 -51
l0 -51 -40 51 c-41 52 -55 60 -62 39z"/>
<path d="M1736 978 c4 -7 18 -30 31 -50 13 -21 23 -41 22 -45 -1 -5 -1 -16 0
-26 2 -31 26 -13 27 20 0 16 12 45 27 65 30 39 33 48 14 48 -7 0 -21 -13 -30
-30 -22 -37 -28 -37 -49 0 -9 17 -24 30 -33 30 -10 0 -13 -5 -9 -12z"/>
</g>
</svg>
